<?xml version="1.0" encoding="UTF-8" standalone="no"?>
<!DOCTYPE svg PUBLIC "-//W3C//DTD SVG 1.1//EN"
 "http://www.w3.org/Graphics/SVG/1.1/DTD/svg11.dtd">
<!-- Generated by graphviz version 2.40.1 (20161225.0304)
 -->
<!-- Title: finite_state_machine Pages: 1 -->
<svg width="576pt" height="87pt"
 viewBox="0.00 0.00 576.00 87.28" xmlns="http://www.w3.org/2000/svg" xmlns:xlink="http://www.w3.org/1999/xlink">
<g id="graph0" class="graph" transform="scale(.5638 .5638) rotate(0) translate(4 150.8)">
<title>finite_state_machine</title>
<polygon fill="#ffffff" stroke="transparent" points="-4,4 -4,-150.8 1017.6523,-150.8 1017.6523,4 -4,4"/>
<!-- Client -->
<g id="node1" class="node">
<title>Client</title>
<ellipse fill="none" stroke="#000000" cx="61.4573" cy="-98" rx="34.7864" ry="18"/>
<text text-anchor="middle" x="61.4573" y="-93.8" font-family="Times,serif" font-size="14.00" fill="#000000">Client</text>
</g>
<!-- 网络交换机 -->
<g id="node2" class="node">
<title>网络交换机</title>
<ellipse fill="none" stroke="#000000" cx="489.6493" cy="-58" rx="62.0283" ry="18"/>
<text text-anchor="middle" x="489.6493" y="-53.8" font-family="Times,serif" font-size="14.00" fill="#000000">网络交换机</text>
</g>
<!-- Client&#45;&gt;网络交换机 -->
<g id="edge1" class="edge">
<title>Client&#45;&gt;网络交换机</title>
<path fill="none" stroke="#000000" d="M96.1215,-96.8295C155.5616,-94.5587 280.6859,-88.6262 385.7299,-76 399.4077,-74.3559 414.022,-72.1235 427.8408,-69.7905"/>
<polygon fill="#000000" stroke="#000000" points="428.4794,-73.2321 437.7377,-68.0809 427.2878,-66.3342 428.4794,-73.2321"/>
<text text-anchor="middle" x="263.3223" y="-98.2" font-family="Times,serif" font-size="14.00" fill="#000000">1、ARP请求: 192.168.31.240的MAC地址?</text>
</g>
<!-- Node1 -->
<g id="node3" class="node">
<title>Node1</title>
<ellipse fill="none" stroke="#000000" cx="766.7607" cy="-121" rx="36.5613" ry="18"/>
<text text-anchor="middle" x="766.7607" y="-116.8" font-family="Times,serif" font-size="14.00" fill="#000000">Node1</text>
</g>
<!-- Client&#45;&gt;Node1 -->
<g id="edge6" class="edge">
<title>Client&#45;&gt;Node1</title>
<path fill="none" stroke="#000000" d="M92.543,-106.167C107.1182,-109.6044 124.7902,-113.2162 140.9147,-115 356.0075,-138.7953 615.2138,-129.198 719.7137,-123.7631"/>
<polygon fill="#000000" stroke="#000000" points="720.1252,-127.2463 729.9249,-123.2194 719.7529,-120.2562 720.1252,-127.2463"/>
<text text-anchor="middle" x="489.6493" y="-134.2" font-family="Times,serif" font-size="14.00" fill="#000000">5、后续流量发往Node1的MAC</text>
</g>
<!-- 网络交换机&#45;&gt;Client -->
<g id="edge5" class="edge">
<title>网络交换机&#45;&gt;Client</title>
<path fill="none" stroke="#000000" d="M435.1726,-49.1897C365.6762,-39.8398 242.3326,-29.6227 140.9147,-55.2 123.0488,-59.7057 104.8305,-69.103 90.3535,-77.9472"/>
<polygon fill="#000000" stroke="#000000" points="88.43,-75.0224 81.8595,-83.3338 92.1789,-80.9339 88.43,-75.0224"/>
<text text-anchor="middle" x="263.3223" y="-60.2" font-family="Times,serif" font-size="14.00" fill="#000000">4、返回ARP响应</text>
</g>
<!-- 网络交换机&#45;&gt;Node1 -->
<g id="edge2" class="edge">
<title>网络交换机&#45;&gt;Node1</title>
<path fill="none" stroke="#000000" d="M543.1721,-67.3527C603.7124,-78.0211 695.9982,-94.5871 711.9807,-99.2 717.7768,-100.8729 723.8077,-102.931 729.6579,-105.1082"/>
<polygon fill="#000000" stroke="#000000" points="728.6709,-108.4796 739.2597,-108.8379 731.2055,-101.9545 728.6709,-108.4796"/>
<text text-anchor="middle" x="652.7747" y="-103.2" font-family="Times,serif" font-size="14.00" fill="#000000">2.1、广播ARP请求</text>
</g>
<!-- Node2 -->
<g id="node4" class="node">
<title>Node2</title>
<ellipse fill="none" stroke="#000000" cx="766.7607" cy="-58" rx="36.5613" ry="18"/>
<text text-anchor="middle" x="766.7607" y="-53.8" font-family="Times,serif" font-size="14.00" fill="#000000">Node2</text>
</g>
<!-- 网络交换机&#45;&gt;Node2 -->
<g id="edge3" class="edge">
<title>网络交换机&#45;&gt;Node2</title>
<path fill="none" stroke="#000000" d="M552.184,-58C603.0876,-58 673.8187,-58 719.9337,-58"/>
<polygon fill="#000000" stroke="#000000" points="719.9552,-61.5001 729.9552,-58 719.9551,-54.5001 719.9552,-61.5001"/>
<text text-anchor="middle" x="652.7747" y="-62.2" font-family="Times,serif" font-size="14.00" fill="#000000">2.2、广播ARP请求</text>
</g>
<!-- Pod -->
<g id="node6" class="node">
<title>Pod</title>
<ellipse fill="none" stroke="#000000" cx="986.6523" cy="-121" rx="27" ry="18"/>
<text text-anchor="middle" x="986.6523" y="-116.8" font-family="Times,serif" font-size="14.00" fill="#000000">Pod</text>
</g>
<!-- Node1&#45;&gt;Pod -->
<g id="edge7" class="edge">
<title>Node1&#45;&gt;Pod</title>
<path fill="none" stroke="#000000" d="M803.5656,-121C844.0551,-121 908.7649,-121 949.4227,-121"/>
<polygon fill="#000000" stroke="#000000" points="949.4618,-124.5001 959.4618,-121 949.4618,-117.5001 949.4618,-124.5001"/>
<text text-anchor="middle" x="881.5965" y="-125.2" font-family="Times,serif" font-size="14.00" fill="#000000">6、kube&#45;proxy转发</text>
</g>
<!-- MetalLB_L2 -->
<g id="node5" class="node">
<title>MetalLB_L2</title>
<ellipse fill="none" stroke="#000000" cx="61.4573" cy="-18" rx="61.4147" ry="18"/>
<text text-anchor="middle" x="61.4573" y="-13.8" font-family="Times,serif" font-size="14.00" fill="#000000">MetalLB_L2</text>
</g>
<!-- MetalLB_L2&#45;&gt;网络交换机 -->
<g id="edge4" class="edge">
<title>MetalLB_L2&#45;&gt;网络交换机</title>
<path fill="none" stroke="#000000" d="M119.7202,-12.0957C185.0688,-6.8844 293.9327,-2.4465 385.7299,-19.2 406.8641,-23.0571 429.3123,-30.9203 447.9163,-38.5658"/>
<polygon fill="#000000" stroke="#000000" points="446.6938,-41.8488 457.2673,-42.5216 449.4212,-35.402 446.6938,-41.8488"/>
<text text-anchor="middle" x="263.3223" y="-24.2" font-family="Times,serif" font-size="14.00" fill="#000000">3、响应: 192.168.31.240 = Node1的MAC</text>
</g>
</g>
</svg>
